<?xml version="1.0" encoding="UTF-8"?>
<svg id="Camada_2" data-name="Camada 2" xmlns="http://www.w3.org/2000/svg" viewBox="0 0 707.46 235.82">
  <defs>
    <style>
      .cls-1, .cls-2, .cls-3, .cls-4 {
        fill-rule: evenodd;
      }

      .cls-1, .cls-5 {
        fill: #fff;
      }

      .cls-2 {
        fill: #45b649;
      }

      .cls-6, .cls-3 {
        fill: #00a7be;
      }

      .cls-4 {
        fill: #febd11;
      }
    </style>
  </defs>
  <g id="Camada_1-2" data-name="Camada 1">
    <g>
      <g>
        <rect class="cls-5" y=".17" width="236.06" height="235.65"/>
        <g>
          <path class="cls-3" d="M0,0v235.82h33.37c4.76-6.68,10.63-12.67,17.52-17.68l1.28-.93c-10.29-64.84,11.9-133.4,65.03-179.84h0s0,0,0,0c53.13,46.44,75.31,115,65.03,179.84l1.28.93c6.89,5.01,12.76,11.01,17.52,17.68h34.8V0H0Z"/>
          <circle class="cls-6" cx="117.19" cy="129.46" r="30.61" transform="translate(-40.62 54.7) rotate(-22.5)"/>
        </g>
        <path class="cls-2" d="M235.82,0v235.82h235.82V0h-235.82ZM432.97,194.84h-39.13v-90.69l-94.08,94.08-27.67-27.67,94.31-94.31h-91.33v-39.18h157.91v157.77Z"/>
        <path class="cls-4" d="M471.64,0v235.82h235.82V0h-235.82ZM589.55,219.52c-12.05-50.29-51.32-89.55-101.61-101.61,50.29-12.05,89.55-51.32,101.61-101.61,12.05,50.29,51.32,89.55,101.61,101.61-50.29,12.05-89.55,51.32-101.61,101.61Z"/>
      </g>
      <path class="cls-1" d="M589.55,219.52c-12.05-50.29-51.32-89.55-101.61-101.61,50.29-12.05,89.55-51.32,101.61-101.61,12.05,50.29,51.32,89.55,101.61,101.61-50.29,12.05-89.55,51.32-101.61,101.61Z"/>
      <polygon class="cls-1" points="432.97 194.84 393.84 194.84 393.84 104.15 299.75 198.23 272.08 170.56 366.39 76.25 275.06 76.25 275.06 37.07 432.97 37.07 432.97 194.84"/>
    </g>
  </g>
</svg>